<?xml version="1.0" encoding="UTF-8" standalone="no"?>
<svg
   width="100%"
   height="100%"
   viewBox="0 0 448 512"
   version="1.1"
   xml:space="preserve"
   style="fill-rule:evenodd;clip-rule:evenodd;stroke-linejoin:round;stroke-miterlimit:2;"
   id="svg11"
   sodipodi:docname="dice-cero-solid.svg"
   inkscape:version="1.1 (c4e8f9e, 2021-05-24)"
   xmlns:inkscape="http://www.inkscape.org/namespaces/inkscape"
   xmlns:sodipodi="http://sodipodi.sourceforge.net/DTD/sodipodi-0.dtd"
   xmlns="http://www.w3.org/2000/svg"
   xmlns:svg="http://www.w3.org/2000/svg"><defs
     id="defs15" /><sodipodi:namedview
     id="namedview13"
     pagecolor="#ffffff"
     bordercolor="#666666"
     borderopacity="1.0"
     inkscape:pageshadow="2"
     inkscape:pageopacity="0.0"
     inkscape:pagecheckerboard="0"
     showgrid="false"
     inkscape:zoom="1.7050781"
     inkscape:cx="259.81215"
     inkscape:cy="255.70676"
     inkscape:window-width="1312"
     inkscape:window-height="1052"
     inkscape:window-x="0"
     inkscape:window-y="504"
     inkscape:window-maximized="0"
     inkscape:current-layer="svg11" /><path
     d="M384,32l-320,0c-35.35,0 -64,28.65 -64,64l0,320c0,35.35 28.65,64 64,64l320,0c35.35,0 64,-28.65 64,-64l0,-320c0,-35.35 -28.65,-64 -64,-64Zm-160.9,227.179c-17.67,-0 0,17.67 0,-0c0,-17.67 -17.67,-0 0,-0c17.67,-0 0,-17.67 0,-0c0,17.67 17.67,-0 0,-0Z"
     style="fill-rule:nonzero;"
     id="path9" /><text
     xml:space="preserve"
     style="font-size:120px;line-height:1.25;font-family:Optima;-inkscape-font-specification:Optima"
     x="228.07578"
     y="208.20596"
     id="text4323"><tspan
       sodipodi:role="line"
       id="tspan4321"
       x="228.07578"
       y="208.20596"
       style="font-style:normal;font-variant:normal;font-weight:normal;font-stretch:normal;font-size:120px;font-family:'Millionaire DEMO';-inkscape-font-specification:'Millionaire DEMO';text-align:center;text-anchor:middle;fill:#ffffff">Let's </tspan><tspan
       sodipodi:role="line"
       x="228.07578"
       y="375.79404"
       style="font-style:normal;font-variant:normal;font-weight:normal;font-stretch:normal;font-size:120px;font-family:'Millionaire DEMO';-inkscape-font-specification:'Millionaire DEMO';text-align:center;text-anchor:middle;fill:#ffffff"
       id="tspan13775">Play</tspan></text></svg>
